# xmcd
#
# Track frame offsets:
#	150
#	21412
#	36312
#	55582
#	72842
#	88095
#	104400
#	118880
#	138327
#	154937
#	170407
#	181895
#	204045
#	221115
#	238545
#	254632
#
# Disc length: 3696 seconds
#
# Revision: 8
# Processed by: cddbd v1.5.2PL0 Copyright (c) Steve Scherf et al.
# Submitted via: EasyCDDAExtractor 15.3.0.1
#
DISCID=e70e6e10
DTITLE=Ana Gabriel - En Vivo
DYEAR=1990
DGENRE=Latin
TTITLE0=En La Oscuridad
TTITLE1=Mar Y Arena
TTITLE2=Amor
TTITLE3=Es El Amor Quien Llega
TTITLE4=Pecado Original
TTITLE5=Quien Como Tu
TTITLE6=Ay Amor
TTITLE7=Destino
TTITLE8=Hasta Que Te Conoci
TTITLE9=Propuesta
TTITLE10=Solamente Una Vez
TTITLE11=Ni Un Roce (Nem Um Toque) (A Duo Con Rosana)
TTITLE12=Y Aqui Estoy
TTITLE13=Soledad (Solidad)
TTITLE14=Simplemente Amigos
TTITLE15=Hice Bien Quererte (Lambada)
EXTD=YEAR: 1990
EXTT0=
EXTT1=
EXTT2=
EXTT3=
EXTT4=
EXTT5=
EXTT6=
EXTT7=
EXTT8=
EXTT9=
EXTT10=
EXTT11=
EXTT12=
EXTT13=
EXTT14=
EXTT15=
PLAYORDER=
